<svg width="343" height="241" viewBox="0 0 343 241" fill="none" xmlns="http://www.w3.org/2000/svg">
<path d="M170.646 0C129.41 0 96 33.4101 96 74.646C96 115.882 129.41 149.292 170.646 149.292C211.882 149.292 245.292 115.882 245.292 74.646C245.292 33.4101 211.882 0 170.646 0ZM187.833 105.377L161.285 86.0837C160.352 85.3914 159.81 84.3079 159.81 83.1641V32.5071C159.81 30.5206 161.436 28.8952 163.422 28.8952H177.87C179.856 28.8952 181.482 30.5206 181.482 32.5071V73.9537L200.595 87.8596C202.22 89.0334 202.551 91.2909 201.377 92.9162L192.889 104.595C191.715 106.19 189.458 106.551 187.833 105.377Z" fill="#F5F5F5"/>
<path d="M18.001 223.47C12.8623 223.47 8.82033 221.95 5.875 218.911C2.92967 215.872 1.457 211.516 1.457 205.845C1.457 200.268 2.88267 195.944 5.734 192.873C8.58533 189.771 12.5647 188.22 17.672 188.22C20.116 188.22 22.2467 188.392 24.064 188.737C24.816 188.862 25.427 189.238 25.897 189.865C26.367 190.492 26.602 191.197 26.602 191.98V193.484C26.602 194.142 26.3357 194.659 25.803 195.035C25.2703 195.411 24.6907 195.521 24.064 195.364C22.278 194.894 20.4607 194.659 18.612 194.659C15.792 194.659 13.583 195.615 11.985 197.526C10.4183 199.437 9.635 202.21 9.635 205.845C9.635 209.417 10.481 212.19 12.173 214.164C13.865 216.138 16.121 217.125 18.941 217.125C20.821 217.125 22.654 216.89 24.44 216.42C25.0667 216.263 25.6463 216.373 26.179 216.749C26.743 217.125 27.025 217.642 27.025 218.3V219.71C27.025 220.493 26.7743 221.198 26.273 221.825C25.803 222.452 25.192 222.828 24.44 222.953C22.5913 223.298 20.445 223.47 18.001 223.47ZM55.3528 205.845C55.3528 198.482 52.7208 194.8 47.4568 194.8C42.1928 194.8 39.5608 198.482 39.5608 205.845C39.5608 213.208 42.1928 216.89 47.4568 216.89C52.7208 216.89 55.3528 213.208 55.3528 205.845ZM59.2068 218.817C56.3241 221.919 52.4074 223.47 47.4568 223.47C42.5061 223.47 38.5894 221.919 35.7068 218.817C32.8241 215.684 31.3828 211.36 31.3828 205.845C31.3828 200.33 32.8241 196.022 35.7068 192.92C38.5894 189.787 42.5061 188.22 47.4568 188.22C52.4074 188.22 56.3241 189.787 59.2068 192.92C62.0894 196.022 63.5308 200.33 63.5308 205.845C63.5308 211.36 62.0894 215.684 59.2068 218.817ZM94.4142 210.545C94.4142 219.162 90.0275 223.47 81.2542 223.47C72.4809 223.47 68.0942 219.162 68.0942 210.545V191.369C68.0942 190.648 68.3605 190.022 68.8932 189.489C69.4259 188.956 70.0525 188.69 70.7732 188.69H73.4992C74.2199 188.69 74.8465 188.956 75.3792 189.489C75.9119 190.022 76.1782 190.648 76.1782 191.369V211.109C76.1782 213.24 76.5855 214.759 77.4002 215.668C78.2149 216.577 79.5309 217.031 81.3482 217.031C83.1655 217.031 84.4815 216.577 85.2962 215.668C86.1109 214.759 86.5182 213.24 86.5182 211.109V191.369C86.5182 190.648 86.7845 190.022 87.3172 189.489C87.8499 188.956 88.4765 188.69 89.1972 188.69H91.7352C92.4559 188.69 93.0825 188.956 93.6152 189.489C94.1479 190.022 94.4142 190.648 94.4142 191.369V210.545ZM103.785 223C103.065 223 102.438 222.734 101.905 222.201C101.373 221.668 101.106 221.042 101.106 220.321V191.369C101.106 190.648 101.373 190.022 101.905 189.489C102.438 188.956 103.065 188.69 103.785 188.69H106.088C107.874 188.69 109.175 189.473 109.989 191.04L119.859 209.699C119.859 209.73 119.875 209.746 119.906 209.746C119.938 209.746 119.953 209.73 119.953 209.699V191.369C119.953 190.648 120.22 190.022 120.752 189.489C121.285 188.956 121.912 188.69 122.632 188.69H124.935C125.656 188.69 126.283 188.956 126.815 189.489C127.348 190.022 127.614 190.648 127.614 191.369V220.321C127.614 221.042 127.348 221.668 126.815 222.201C126.283 222.734 125.656 223 124.935 223H122.632C120.846 223 119.546 222.217 118.731 220.65L108.861 201.991C108.861 201.96 108.846 201.944 108.814 201.944C108.783 201.944 108.767 201.96 108.767 201.991V220.321C108.767 221.042 108.501 221.668 107.968 222.201C107.436 222.734 106.809 223 106.088 223H103.785ZM136.254 195.317C135.533 195.317 134.906 195.051 134.374 194.518C133.841 193.985 133.575 193.359 133.575 192.638V191.369C133.575 190.648 133.841 190.022 134.374 189.489C134.906 188.956 135.533 188.69 136.254 188.69H157.216C157.936 188.69 158.563 188.956 159.096 189.489C159.628 190.022 159.895 190.648 159.895 191.369V192.638C159.895 193.359 159.628 193.985 159.096 194.518C158.563 195.051 157.936 195.317 157.216 195.317H151.2C150.949 195.317 150.824 195.442 150.824 195.693V220.321C150.824 221.042 150.557 221.668 150.025 222.201C149.492 222.734 148.865 223 148.145 223H145.325C144.604 223 143.977 222.734 143.445 222.201C142.912 221.668 142.646 221.042 142.646 220.321V195.693C142.646 195.442 142.52 195.317 142.27 195.317H136.254ZM168.501 223C167.78 223 167.154 222.734 166.621 222.201C166.12 221.668 165.869 221.042 165.869 220.321V191.369C165.869 190.648 166.12 190.022 166.621 189.489C167.154 188.956 167.78 188.69 168.501 188.69H185.139C185.86 188.69 186.471 188.956 186.972 189.489C187.505 190.022 187.771 190.648 187.771 191.369V192.45C187.771 193.171 187.505 193.797 186.972 194.33C186.471 194.863 185.86 195.129 185.139 195.129H174.235C173.984 195.129 173.859 195.254 173.859 195.505V201.709C173.859 201.991 173.984 202.132 174.235 202.132H184.199C184.92 202.132 185.531 202.398 186.032 202.931C186.565 203.464 186.831 204.09 186.831 204.811V205.516C186.831 206.237 186.565 206.863 186.032 207.396C185.531 207.929 184.92 208.195 184.199 208.195H174.235C173.984 208.195 173.859 208.32 173.859 208.571V216.185C173.859 216.436 173.984 216.561 174.235 216.561H185.139C185.86 216.561 186.471 216.827 186.972 217.36C187.505 217.893 187.771 218.519 187.771 219.24V220.321C187.771 221.042 187.505 221.668 186.972 222.201C186.471 222.734 185.86 223 185.139 223H168.501ZM202.313 194.988V204.012C202.313 204.294 202.438 204.435 202.689 204.435H204.945C207.138 204.435 208.814 203.981 209.974 203.072C211.133 202.132 211.713 200.832 211.713 199.171C211.713 195.912 209.566 194.283 205.274 194.283C204.302 194.283 203.456 194.346 202.736 194.471C202.454 194.534 202.313 194.706 202.313 194.988ZM197.143 223C196.422 223 195.795 222.734 195.263 222.201C194.73 221.668 194.464 221.042 194.464 220.321V191.604C194.464 190.821 194.714 190.147 195.216 189.583C195.748 189.019 196.391 188.706 197.143 188.643C199.931 188.361 202.798 188.22 205.744 188.22C210.444 188.22 213.937 189.113 216.225 190.899C218.543 192.654 219.703 195.16 219.703 198.419C219.703 200.518 219.092 202.414 217.87 204.106C216.648 205.767 215.05 206.957 213.076 207.678C213.044 207.678 213.029 207.694 213.029 207.725C213.029 207.788 213.06 207.819 213.123 207.819C214.658 208.696 215.958 210.545 217.024 213.365L219.703 220.509C219.922 221.104 219.844 221.668 219.468 222.201C219.092 222.734 218.59 223 217.964 223H215.097C214.282 223 213.546 222.765 212.888 222.295C212.23 221.825 211.775 221.214 211.525 220.462L209.175 213.694C208.736 212.378 208.203 211.485 207.577 211.015C206.95 210.545 205.979 210.31 204.663 210.31H202.689C202.438 210.31 202.313 210.451 202.313 210.733V220.321C202.313 221.042 202.046 221.668 201.514 222.201C200.981 222.734 200.354 223 199.634 223H197.143ZM251.021 195.646L247.59 209.135C247.559 209.229 247.575 209.323 247.637 209.417C247.731 209.48 247.825 209.511 247.919 209.511H254.217C254.311 209.511 254.39 209.48 254.452 209.417C254.546 209.323 254.578 209.229 254.546 209.135L251.115 195.646C251.115 195.615 251.1 195.599 251.068 195.599C251.037 195.599 251.021 195.615 251.021 195.646ZM238.472 223C237.814 223 237.282 222.734 236.874 222.201C236.498 221.668 236.42 221.089 236.639 220.462L246.133 191.228C246.384 190.476 246.823 189.865 247.449 189.395C248.107 188.925 248.828 188.69 249.611 188.69H252.713C253.528 188.69 254.264 188.925 254.922 189.395C255.58 189.865 256.019 190.476 256.238 191.228L265.685 220.462C265.905 221.089 265.811 221.668 265.403 222.201C265.027 222.734 264.51 223 263.852 223H260.703C259.92 223 259.215 222.765 258.588 222.295C257.962 221.794 257.554 221.167 257.366 220.415L256.238 215.95C256.207 215.699 256.05 215.574 255.768 215.574H246.368C246.118 215.574 245.961 215.699 245.898 215.95L244.77 220.415C244.582 221.167 244.175 221.794 243.548 222.295C242.922 222.765 242.217 223 241.433 223H238.472ZM277.861 194.988V205.234C277.861 205.453 278.002 205.594 278.284 205.657C279.35 205.782 280.196 205.845 280.822 205.845C283.078 205.845 284.817 205.328 286.039 204.294C287.293 203.229 287.919 201.756 287.919 199.876C287.919 196.147 285.554 194.283 280.822 194.283C280.039 194.283 279.177 194.361 278.237 194.518C277.987 194.581 277.861 194.737 277.861 194.988ZM272.691 223C271.971 223 271.344 222.734 270.811 222.201C270.279 221.668 270.012 221.042 270.012 220.321V191.604C270.012 190.852 270.263 190.178 270.764 189.583C271.266 188.988 271.892 188.659 272.644 188.596C275.308 188.345 277.877 188.22 280.352 188.22C290.379 188.22 295.392 191.949 295.392 199.406C295.392 203.448 294.217 206.519 291.867 208.618C289.549 210.686 286.133 211.72 281.621 211.72C280.431 211.72 279.318 211.673 278.284 211.579C278.002 211.579 277.861 211.704 277.861 211.955V220.321C277.861 221.042 277.595 221.668 277.062 222.201C276.53 222.734 275.903 223 275.182 223H272.691ZM308.017 194.988V205.234C308.017 205.453 308.158 205.594 308.44 205.657C309.505 205.782 310.351 205.845 310.978 205.845C313.234 205.845 314.973 205.328 316.195 204.294C317.448 203.229 318.075 201.756 318.075 199.876C318.075 196.147 315.709 194.283 310.978 194.283C310.194 194.283 309.333 194.361 308.393 194.518C308.142 194.581 308.017 194.737 308.017 194.988ZM302.847 223C302.126 223 301.499 222.734 300.967 222.201C300.434 221.668 300.168 221.042 300.168 220.321V191.604C300.168 190.852 300.418 190.178 300.92 189.583C301.421 188.988 302.048 188.659 302.8 188.596C305.463 188.345 308.032 188.22 310.508 188.22C320.534 188.22 325.548 191.949 325.548 199.406C325.548 203.448 324.373 206.519 322.023 208.618C319.704 210.686 316.289 211.72 311.777 211.72C310.586 211.72 309.474 211.673 308.44 211.579C308.158 211.579 308.017 211.704 308.017 211.955V220.321C308.017 221.042 307.75 221.668 307.218 222.201C306.685 222.734 306.058 223 305.338 223H302.847Z" fill="#F5F5F5"/>
</svg>
