<svg width="280" height="197" viewBox="0 0 280 197" fill="none" xmlns="http://www.w3.org/2000/svg">
<path d="M14.937 195.39C10.673 195.39 7.319 194.129 4.875 191.607C2.431 189.085 1.209 185.471 1.209 180.765C1.209 176.137 2.392 172.549 4.758 170.001C7.124 167.427 10.426 166.14 14.664 166.14C16.692 166.14 18.46 166.283 19.968 166.569C20.592 166.673 21.099 166.985 21.489 167.505C21.879 168.025 22.074 168.61 22.074 169.26V170.508C22.074 171.054 21.853 171.483 21.411 171.795C20.969 172.107 20.488 172.198 19.968 172.068C18.486 171.678 16.978 171.483 15.444 171.483C13.104 171.483 11.271 172.276 9.945 173.862C8.645 175.448 7.995 177.749 7.995 180.765C7.995 183.729 8.697 186.03 10.101 187.668C11.505 189.306 13.377 190.125 15.717 190.125C17.277 190.125 18.798 189.93 20.28 189.54C20.8 189.41 21.281 189.501 21.723 189.813C22.191 190.125 22.425 190.554 22.425 191.1V192.27C22.425 192.92 22.217 193.505 21.801 194.025C21.411 194.545 20.904 194.857 20.28 194.961C18.746 195.247 16.965 195.39 14.937 195.39ZM45.931 180.765C45.931 174.655 43.747 171.6 39.379 171.6C35.011 171.6 32.827 174.655 32.827 180.765C32.827 186.875 35.011 189.93 39.379 189.93C43.747 189.93 45.931 186.875 45.931 180.765ZM49.129 191.529C46.737 194.103 43.487 195.39 39.379 195.39C35.271 195.39 32.021 194.103 29.629 191.529C27.237 188.929 26.041 185.341 26.041 180.765C26.041 176.189 27.237 172.614 29.629 170.04C32.021 167.44 35.271 166.14 39.379 166.14C43.487 166.14 46.737 167.44 49.129 170.04C51.521 172.614 52.717 176.189 52.717 180.765C52.717 185.341 51.521 188.929 49.129 191.529ZM78.3437 184.665C78.3437 191.815 74.7037 195.39 67.4237 195.39C60.1437 195.39 56.5037 191.815 56.5037 184.665V168.753C56.5037 168.155 56.7247 167.635 57.1667 167.193C57.6087 166.751 58.1287 166.53 58.7267 166.53H60.9887C61.5867 166.53 62.1067 166.751 62.5487 167.193C62.9907 167.635 63.2117 168.155 63.2117 168.753V185.133C63.2117 186.901 63.5497 188.162 64.2257 188.916C64.9017 189.67 65.9937 190.047 67.5017 190.047C69.0097 190.047 70.1017 189.67 70.7777 188.916C71.4537 188.162 71.7917 186.901 71.7917 185.133V168.753C71.7917 168.155 72.0127 167.635 72.4547 167.193C72.8967 166.751 73.4167 166.53 74.0147 166.53H76.1207C76.7187 166.53 77.2387 166.751 77.6807 167.193C78.1227 167.635 78.3437 168.155 78.3437 168.753V184.665ZM86.1196 195C85.5216 195 85.0016 194.779 84.5596 194.337C84.1176 193.895 83.8966 193.375 83.8966 192.777V168.753C83.8966 168.155 84.1176 167.635 84.5596 167.193C85.0016 166.751 85.5216 166.53 86.1196 166.53H88.0306C89.5126 166.53 90.5916 167.18 91.2676 168.48L99.4576 183.963C99.4576 183.989 99.4706 184.002 99.4966 184.002C99.5226 184.002 99.5356 183.989 99.5356 183.963V168.753C99.5356 168.155 99.7566 167.635 100.199 167.193C100.641 166.751 101.161 166.53 101.759 166.53H103.67C104.268 166.53 104.788 166.751 105.23 167.193C105.672 167.635 105.893 168.155 105.893 168.753V192.777C105.893 193.375 105.672 193.895 105.23 194.337C104.788 194.779 104.268 195 103.67 195H101.759C100.277 195 99.1976 194.35 98.5216 193.05L90.3316 177.567C90.3316 177.541 90.3186 177.528 90.2926 177.528C90.2666 177.528 90.2536 177.541 90.2536 177.567V192.777C90.2536 193.375 90.0326 193.895 89.5906 194.337C89.1486 194.779 88.6286 195 88.0306 195H86.1196ZM113.062 172.029C112.464 172.029 111.944 171.808 111.502 171.366C111.06 170.924 110.839 170.404 110.839 169.806V168.753C110.839 168.155 111.06 167.635 111.502 167.193C111.944 166.751 112.464 166.53 113.062 166.53H130.456C131.054 166.53 131.574 166.751 132.016 167.193C132.458 167.635 132.679 168.155 132.679 168.753V169.806C132.679 170.404 132.458 170.924 132.016 171.366C131.574 171.808 131.054 172.029 130.456 172.029H125.464C125.256 172.029 125.152 172.133 125.152 172.341V192.777C125.152 193.375 124.931 193.895 124.489 194.337C124.047 194.779 123.527 195 122.929 195H120.589C119.991 195 119.471 194.779 119.029 194.337C118.587 193.895 118.366 193.375 118.366 192.777V172.341C118.366 172.133 118.262 172.029 118.054 172.029H113.062ZM139.82 195C139.222 195 138.702 194.779 138.26 194.337C137.844 193.895 137.636 193.375 137.636 192.777V168.753C137.636 168.155 137.844 167.635 138.26 167.193C138.702 166.751 139.222 166.53 139.82 166.53H153.626C154.224 166.53 154.731 166.751 155.147 167.193C155.589 167.635 155.81 168.155 155.81 168.753V169.65C155.81 170.248 155.589 170.768 155.147 171.21C154.731 171.652 154.224 171.873 153.626 171.873H144.578C144.37 171.873 144.266 171.977 144.266 172.185V177.333C144.266 177.567 144.37 177.684 144.578 177.684H152.846C153.444 177.684 153.951 177.905 154.367 178.347C154.809 178.789 155.03 179.309 155.03 179.907V180.492C155.03 181.09 154.809 181.61 154.367 182.052C153.951 182.494 153.444 182.715 152.846 182.715H144.578C144.37 182.715 144.266 182.819 144.266 183.027V189.345C144.266 189.553 144.37 189.657 144.578 189.657H153.626C154.224 189.657 154.731 189.878 155.147 190.32C155.589 190.762 155.81 191.282 155.81 191.88V192.777C155.81 193.375 155.589 193.895 155.147 194.337C154.731 194.779 154.224 195 153.626 195H139.82ZM167.876 171.756V179.244C167.876 179.478 167.98 179.595 168.188 179.595H170.06C171.88 179.595 173.271 179.218 174.233 178.464C175.195 177.684 175.676 176.605 175.676 175.227C175.676 172.523 173.895 171.171 170.333 171.171C169.527 171.171 168.825 171.223 168.227 171.327C167.993 171.379 167.876 171.522 167.876 171.756ZM163.586 195C162.988 195 162.468 194.779 162.026 194.337C161.584 193.895 161.363 193.375 161.363 192.777V168.948C161.363 168.298 161.571 167.739 161.987 167.271C162.429 166.803 162.962 166.543 163.586 166.491C165.9 166.257 168.279 166.14 170.723 166.14C174.623 166.14 177.522 166.881 179.42 168.363C181.344 169.819 182.306 171.899 182.306 174.603C182.306 176.345 181.799 177.918 180.785 179.322C179.771 180.7 178.445 181.688 176.807 182.286C176.781 182.286 176.768 182.299 176.768 182.325C176.768 182.377 176.794 182.403 176.846 182.403C178.12 183.131 179.199 184.665 180.083 187.005L182.306 192.933C182.488 193.427 182.423 193.895 182.111 194.337C181.799 194.779 181.383 195 180.863 195H178.484C177.808 195 177.197 194.805 176.651 194.415C176.105 194.025 175.728 193.518 175.52 192.894L173.57 187.278C173.206 186.186 172.764 185.445 172.244 185.055C171.724 184.665 170.918 184.47 169.826 184.47H168.188C167.98 184.47 167.876 184.587 167.876 184.821V192.777C167.876 193.375 167.655 193.895 167.213 194.337C166.771 194.779 166.251 195 165.653 195H163.586ZM208.294 172.302L205.447 183.495C205.421 183.573 205.434 183.651 205.486 183.729C205.564 183.781 205.642 183.807 205.72 183.807H210.946C211.024 183.807 211.089 183.781 211.141 183.729C211.219 183.651 211.245 183.573 211.219 183.495L208.372 172.302C208.372 172.276 208.359 172.263 208.333 172.263C208.307 172.263 208.294 172.276 208.294 172.302ZM197.881 195C197.335 195 196.893 194.779 196.555 194.337C196.243 193.895 196.178 193.414 196.36 192.894L204.238 168.636C204.446 168.012 204.81 167.505 205.33 167.115C205.876 166.725 206.474 166.53 207.124 166.53H209.698C210.374 166.53 210.985 166.725 211.531 167.115C212.077 167.505 212.441 168.012 212.623 168.636L220.462 192.894C220.644 193.414 220.566 193.895 220.228 194.337C219.916 194.779 219.487 195 218.941 195H216.328C215.678 195 215.093 194.805 214.573 194.415C214.053 193.999 213.715 193.479 213.559 192.855L212.623 189.15C212.597 188.942 212.467 188.838 212.233 188.838H204.433C204.225 188.838 204.095 188.942 204.043 189.15L203.107 192.855C202.951 193.479 202.613 193.999 202.093 194.415C201.573 194.805 200.988 195 200.338 195H197.881ZM230.566 171.756V180.258C230.566 180.44 230.683 180.557 230.917 180.609C231.801 180.713 232.503 180.765 233.023 180.765C234.895 180.765 236.338 180.336 237.352 179.478C238.392 178.594 238.912 177.372 238.912 175.812C238.912 172.718 236.949 171.171 233.023 171.171C232.373 171.171 231.658 171.236 230.878 171.366C230.67 171.418 230.566 171.548 230.566 171.756ZM226.276 195C225.678 195 225.158 194.779 224.716 194.337C224.274 193.895 224.053 193.375 224.053 192.777V168.948C224.053 168.324 224.261 167.765 224.677 167.271C225.093 166.777 225.613 166.504 226.237 166.452C228.447 166.244 230.579 166.14 232.633 166.14C240.953 166.14 245.113 169.234 245.113 175.422C245.113 178.776 244.138 181.324 242.188 183.066C240.264 184.782 237.43 185.64 233.686 185.64C232.698 185.64 231.775 185.601 230.917 185.523C230.683 185.523 230.566 185.627 230.566 185.835V192.777C230.566 193.375 230.345 193.895 229.903 194.337C229.461 194.779 228.941 195 228.343 195H226.276ZM255.588 171.756V180.258C255.588 180.44 255.705 180.557 255.939 180.609C256.823 180.713 257.525 180.765 258.045 180.765C259.917 180.765 261.36 180.336 262.374 179.478C263.414 178.594 263.934 177.372 263.934 175.812C263.934 172.718 261.971 171.171 258.045 171.171C257.395 171.171 256.68 171.236 255.9 171.366C255.692 171.418 255.588 171.548 255.588 171.756ZM251.298 195C250.7 195 250.18 194.779 249.738 194.337C249.296 193.895 249.075 193.375 249.075 192.777V168.948C249.075 168.324 249.283 167.765 249.699 167.271C250.115 166.777 250.635 166.504 251.259 166.452C253.469 166.244 255.601 166.14 257.655 166.14C265.975 166.14 270.135 169.234 270.135 175.422C270.135 178.776 269.16 181.324 267.21 183.066C265.286 184.782 262.452 185.64 258.708 185.64C257.72 185.64 256.797 185.601 255.939 185.523C255.705 185.523 255.588 185.627 255.588 185.835V192.777C255.588 193.375 255.367 193.895 254.925 194.337C254.483 194.779 253.963 195 253.365 195H251.298Z" fill="url(#paint0_linear)"/>
<g filter="url(#filter0_d)">
<circle cx="140" cy="78" r="73" fill="url(#paint1_linear)"/>
<line x1="140.5" y1="7.47296" x2="140.5" y2="12.3919" stroke="#F5F5F5" stroke-linecap="round" stroke-linejoin="round"/>
<line x1="140.5" y1="26.2162" x2="140.5" y2="80.4595" stroke="#F5F5F5" stroke-linecap="round" stroke-linejoin="round"/>
<line x1="177.751" y1="100.164" x2="134.185" y2="67.8481" stroke="#F5F5F5" stroke-linecap="round" stroke-linejoin="round"/>
<line x1="69.473" y1="77.5" x2="74.3919" y2="77.5" stroke="#F5F5F5" stroke-linecap="round" stroke-linejoin="round"/>
<line x1="205.608" y1="77.5" x2="210.527" y2="77.5" stroke="#F5F5F5" stroke-linecap="round" stroke-linejoin="round"/>
<line x1="140.5" y1="143.608" x2="140.5" y2="148.527" stroke="#F5F5F5" stroke-linecap="round" stroke-linejoin="round"/>
</g>
<defs>
<filter id="filter0_d" x="62" y="0" width="164" height="164" filterUnits="userSpaceOnUse" color-interpolation-filters="sRGB">
<feFlood flood-opacity="0" result="BackgroundImageFix"/>
<feColorMatrix in="SourceAlpha" type="matrix" values="0 0 0 0 0 0 0 0 0 0 0 0 0 0 0 0 0 0 127 0"/>
<feOffset dx="4" dy="4"/>
<feGaussianBlur stdDeviation="4.5"/>
<feColorMatrix type="matrix" values="0 0 0 0 0.309804 0 0 0 0 0.662745 0 0 0 0 0.517647 0 0 0 0.3 0"/>
<feBlend mode="normal" in2="BackgroundImageFix" result="effect1_dropShadow"/>
<feBlend mode="normal" in="SourceGraphic" in2="effect1_dropShadow" result="shape"/>
</filter>
<linearGradient id="paint0_linear" x1="0" y1="151" x2="273.4" y2="222.306" gradientUnits="userSpaceOnUse">
<stop stop-color="#4FA884"/>
<stop offset="1" stop-color="#4F6DAE"/>
</linearGradient>
<linearGradient id="paint1_linear" x1="67" y1="5" x2="213" y2="151" gradientUnits="userSpaceOnUse">
<stop stop-color="#4FB77A"/>
<stop offset="1" stop-color="#4F60B7"/>
</linearGradient>
</defs>
</svg>
