<svg width="174" height="36" viewBox="0 0 174 36" fill="none" xmlns="http://www.w3.org/2000/svg">
<path d="M51.592 27.24C49.288 27.24 47.44 26.456 46.048 24.888C44.656 23.304 43.96 21.088 43.96 18.24C43.96 15.408 44.624 13.2 45.952 11.616C47.296 10.032 49.152 9.24 51.52 9.24C52.768 9.24 53.88 9.36 54.856 9.6C55.096 9.664 55.288 9.8 55.432 10.008C55.592 10.216 55.672 10.448 55.672 10.704C55.672 10.912 55.584 11.08 55.408 11.208C55.248 11.32 55.064 11.344 54.856 11.28C53.912 10.992 52.856 10.848 51.688 10.848C49.88 10.848 48.464 11.496 47.44 12.792C46.416 14.088 45.904 15.904 45.904 18.24C45.904 20.56 46.432 22.376 47.488 23.688C48.56 24.984 49.984 25.632 51.76 25.632C52.944 25.632 54.016 25.488 54.976 25.2C55.184 25.136 55.368 25.168 55.528 25.296C55.704 25.408 55.792 25.568 55.792 25.776C55.792 26.032 55.712 26.264 55.552 26.472C55.408 26.664 55.216 26.792 54.976 26.856C53.904 27.112 52.776 27.24 51.592 27.24ZM67.9964 20.76C67.9964 17.4 66.7164 15.72 64.1564 15.72C61.5964 15.72 60.3164 17.4 60.3164 20.76C60.3164 24.12 61.5964 25.8 64.1564 25.8C66.7164 25.8 67.9964 24.12 67.9964 20.76ZM68.3564 25.536C67.3484 26.672 65.9484 27.24 64.1564 27.24C62.3644 27.24 60.9644 26.672 59.9564 25.536C58.9484 24.4 58.4444 22.808 58.4444 20.76C58.4444 18.712 58.9484 17.12 59.9564 15.984C60.9644 14.848 62.3644 14.28 64.1564 14.28C65.9484 14.28 67.3484 14.848 68.3564 15.984C69.3644 17.12 69.8684 18.712 69.8684 20.76C69.8684 22.808 69.3644 24.4 68.3564 25.536ZM76.5323 27.24C75.1403 27.24 74.1163 26.856 73.4603 26.088C72.8203 25.32 72.5003 24.048 72.5003 22.272V15.432C72.5003 15.176 72.5803 14.96 72.7403 14.784C72.9163 14.608 73.1323 14.52 73.3883 14.52C73.6443 14.52 73.8603 14.608 74.0363 14.784C74.2123 14.96 74.3003 15.176 74.3003 15.432V22.032C74.3003 23.472 74.5163 24.464 74.9483 25.008C75.3803 25.536 76.0683 25.8 77.0123 25.8C77.8763 25.8 78.6923 25.432 79.4603 24.696C80.2283 23.944 80.6123 23.128 80.6123 22.248V15.432C80.6123 15.176 80.7003 14.96 80.8763 14.784C81.0683 14.608 81.2923 14.52 81.5483 14.52C81.8043 14.52 82.0203 14.608 82.1963 14.784C82.3723 14.96 82.4603 15.176 82.4603 15.432V26.136C82.4603 26.376 82.3723 26.584 82.1963 26.76C82.0363 26.92 81.8363 27 81.5963 27C81.3563 27 81.1483 26.92 80.9723 26.76C80.7963 26.584 80.7083 26.376 80.7083 26.136V25.152C80.7083 25.136 80.7003 25.128 80.6843 25.128C80.6683 25.128 80.6523 25.136 80.6363 25.152C79.5323 26.544 78.1643 27.24 76.5323 27.24ZM87.61 26.736C87.434 26.912 87.218 27 86.962 27C86.706 27 86.49 26.912 86.314 26.736C86.138 26.56 86.05 26.344 86.05 26.088V15.384C86.05 15.144 86.13 14.944 86.29 14.784C86.466 14.608 86.674 14.52 86.914 14.52C87.154 14.52 87.362 14.608 87.538 14.784C87.714 14.944 87.802 15.144 87.802 15.384V16.368C87.802 16.384 87.81 16.392 87.826 16.392C87.842 16.392 87.858 16.384 87.874 16.368C89.026 14.976 90.394 14.28 91.978 14.28C93.434 14.28 94.49 14.688 95.146 15.504C95.802 16.32 96.13 17.672 96.13 19.56V26.088C96.13 26.344 96.042 26.56 95.866 26.736C95.706 26.912 95.498 27 95.242 27C94.986 27 94.77 26.912 94.594 26.736C94.418 26.56 94.33 26.344 94.33 26.088V19.8C94.33 18.216 94.114 17.144 93.682 16.584C93.25 16.008 92.522 15.72 91.498 15.72C90.666 15.72 89.858 16.112 89.074 16.896C88.29 17.664 87.898 18.456 87.898 19.272V26.088C87.898 26.344 87.802 26.56 87.61 26.736ZM99.2716 16.44C99.0636 16.44 98.8876 16.376 98.7436 16.248C98.6156 16.104 98.5516 15.928 98.5516 15.72C98.5516 15.512 98.6156 15.344 98.7436 15.216C98.8876 15.072 99.0636 15 99.2716 15H101.024C101.168 15 101.24 14.928 101.24 14.784V11.352C101.24 11.096 101.328 10.88 101.504 10.704C101.68 10.528 101.896 10.44 102.152 10.44C102.408 10.44 102.624 10.528 102.8 10.704C102.976 10.88 103.064 11.096 103.064 11.352V14.784C103.064 14.928 103.136 15 103.28 15H106.88C107.088 15 107.256 15.072 107.384 15.216C107.528 15.344 107.6 15.512 107.6 15.72C107.6 15.928 107.528 16.104 107.384 16.248C107.256 16.376 107.088 16.44 106.88 16.44H103.28C103.136 16.44 103.064 16.512 103.064 16.656V22.992C103.064 24.144 103.216 24.904 103.52 25.272C103.824 25.624 104.408 25.8 105.272 25.8C105.784 25.8 106.208 25.76 106.544 25.68C106.72 25.648 106.88 25.688 107.024 25.8C107.184 25.896 107.264 26.032 107.264 26.208C107.264 26.432 107.192 26.632 107.048 26.808C106.92 26.984 106.752 27.088 106.544 27.12C106.128 27.2 105.6 27.24 104.96 27.24C103.552 27.24 102.576 26.952 102.032 26.376C101.504 25.784 101.24 24.712 101.24 23.16V16.656C101.24 16.512 101.168 16.44 101.024 16.44H99.2716ZM115.644 15.672C113.42 15.672 112.204 16.992 111.996 19.632C111.996 19.76 112.068 19.824 112.212 19.824H118.668C118.796 19.824 118.86 19.76 118.86 19.632C118.764 16.992 117.692 15.672 115.644 15.672ZM116.148 27.24C114.18 27.24 112.684 26.704 111.66 25.632C110.636 24.544 110.124 22.92 110.124 20.76C110.124 18.536 110.612 16.904 111.588 15.864C112.58 14.808 113.932 14.28 115.644 14.28C118.796 14.28 120.468 16.144 120.66 19.872C120.676 20.256 120.54 20.584 120.252 20.856C119.98 21.112 119.652 21.24 119.268 21.24H112.164C112.036 21.24 111.972 21.312 111.972 21.456C112.116 24.384 113.564 25.848 116.316 25.848C117.228 25.848 118.164 25.68 119.124 25.344C119.3 25.28 119.468 25.304 119.628 25.416C119.788 25.512 119.868 25.656 119.868 25.848C119.868 26.392 119.62 26.728 119.124 26.856C118.1 27.112 117.108 27.24 116.148 27.24ZM125.182 26.712C125.006 26.904 124.782 27 124.51 27C124.238 27 124.006 26.904 123.814 26.712C123.638 26.52 123.55 26.296 123.55 26.04V15.432C123.55 15.176 123.638 14.96 123.814 14.784C123.99 14.608 124.206 14.52 124.462 14.52C124.718 14.52 124.934 14.608 125.11 14.784C125.286 14.96 125.374 15.176 125.374 15.432V17.28C125.374 17.296 125.382 17.304 125.398 17.304C125.43 17.304 125.446 17.288 125.446 17.256C125.926 16.456 126.598 15.816 127.462 15.336C128.342 14.84 129.326 14.568 130.414 14.52C130.638 14.504 130.83 14.576 130.99 14.736C131.15 14.896 131.23 15.088 131.23 15.312C131.23 15.52 131.15 15.704 130.99 15.864C130.846 16.024 130.662 16.112 130.438 16.128C128.854 16.192 127.63 16.656 126.766 17.52C125.902 18.368 125.47 19.56 125.47 21.096V26.04C125.47 26.296 125.374 26.52 125.182 26.712ZM138.571 11.232L135.643 20.16C135.627 20.208 135.635 20.256 135.667 20.304C135.699 20.336 135.739 20.352 135.787 20.352H141.427C141.475 20.352 141.507 20.336 141.523 20.304C141.555 20.256 141.571 20.208 141.571 20.16L138.643 11.232C138.643 11.216 138.635 11.208 138.619 11.208C138.587 11.208 138.571 11.216 138.571 11.232ZM132.403 27C132.163 27 131.971 26.904 131.827 26.712C131.683 26.504 131.651 26.288 131.731 26.064L137.203 10.488C137.315 10.184 137.499 9.944 137.755 9.768C138.027 9.576 138.323 9.48 138.643 9.48C138.963 9.48 139.251 9.576 139.507 9.768C139.779 9.944 139.971 10.184 140.083 10.488L145.531 26.04C145.611 26.28 145.579 26.504 145.435 26.712C145.291 26.904 145.099 27 144.859 27C144.539 27 144.251 26.912 143.995 26.736C143.755 26.544 143.587 26.304 143.491 26.016L142.219 22.08C142.171 21.952 142.075 21.888 141.931 21.888H135.283C135.155 21.888 135.067 21.952 135.019 22.08L133.699 26.064C133.603 26.352 133.435 26.584 133.195 26.76C132.971 26.92 132.707 27 132.403 27ZM149.843 19.056V22.464C149.843 23.376 150.203 24.16 150.923 24.816C151.643 25.472 152.483 25.8 153.443 25.8C154.579 25.8 155.459 25.376 156.083 24.528C156.723 23.664 157.043 22.408 157.043 20.76C157.043 17.4 155.843 15.72 153.443 15.72C152.467 15.72 151.619 16.056 150.899 16.728C150.195 17.384 149.843 18.16 149.843 19.056ZM149.579 32.016C149.403 32.192 149.187 32.28 148.931 32.28C148.675 32.28 148.451 32.192 148.259 32.016C148.083 31.84 147.995 31.624 147.995 31.368V15.384C147.995 15.144 148.075 14.944 148.235 14.784C148.411 14.608 148.619 14.52 148.859 14.52C149.099 14.52 149.307 14.608 149.483 14.784C149.659 14.944 149.747 15.144 149.747 15.384L149.771 16.296C149.771 16.312 149.779 16.32 149.795 16.32L149.843 16.272C150.899 14.944 152.235 14.28 153.851 14.28C155.403 14.28 156.627 14.848 157.523 15.984C158.435 17.104 158.891 18.696 158.891 20.76C158.891 22.76 158.419 24.344 157.475 25.512C156.547 26.664 155.339 27.24 153.851 27.24C152.219 27.24 150.907 26.624 149.915 25.392C149.899 25.376 149.883 25.368 149.867 25.368C149.851 25.368 149.843 25.376 149.843 25.392V31.368C149.843 31.624 149.755 31.84 149.579 32.016ZM163.625 19.056V22.464C163.625 23.376 163.985 24.16 164.705 24.816C165.425 25.472 166.265 25.8 167.225 25.8C168.361 25.8 169.241 25.376 169.865 24.528C170.505 23.664 170.825 22.408 170.825 20.76C170.825 17.4 169.625 15.72 167.225 15.72C166.249 15.72 165.401 16.056 164.681 16.728C163.977 17.384 163.625 18.16 163.625 19.056ZM163.361 32.016C163.185 32.192 162.969 32.28 162.713 32.28C162.457 32.28 162.233 32.192 162.041 32.016C161.865 31.84 161.777 31.624 161.777 31.368V15.384C161.777 15.144 161.857 14.944 162.017 14.784C162.193 14.608 162.401 14.52 162.641 14.52C162.881 14.52 163.089 14.608 163.265 14.784C163.441 14.944 163.529 15.144 163.529 15.384L163.553 16.296C163.553 16.312 163.561 16.32 163.577 16.32L163.625 16.272C164.681 14.944 166.017 14.28 167.633 14.28C169.185 14.28 170.409 14.848 171.305 15.984C172.217 17.104 172.673 18.696 172.673 20.76C172.673 22.76 172.201 24.344 171.257 25.512C170.329 26.664 169.121 27.24 167.633 27.24C166.001 27.24 164.689 26.624 163.697 25.392C163.681 25.376 163.665 25.368 163.649 25.368C163.633 25.368 163.625 25.376 163.625 25.392V31.368C163.625 31.624 163.537 31.84 163.361 32.016Z" fill="#F5F5F5"/>
<circle cx="18" cy="18" r="18" fill="white"/>
<line x1="18.5" y1="0.986481" x2="18.5" y2="1.44594" stroke="#2E2E2E" stroke-linecap="round" stroke-linejoin="round"/>
<line x1="18.5" y1="5.60809" x2="18.5" y2="18.2297" stroke="#2E2E2E" stroke-linecap="round" stroke-linejoin="round"/>
<line x1="26.7816" y1="23.5431" x2="16.6443" y2="16.0238" stroke="#2E2E2E" stroke-linecap="round" stroke-linejoin="round"/>
<line x1="0.986511" y1="17.5" x2="1.44597" y2="17.5" stroke="#2E2E2E" stroke-linecap="round" stroke-linejoin="round"/>
<line x1="34.554" y1="17.5" x2="35.0135" y2="17.5" stroke="#2E2E2E" stroke-linecap="round" stroke-linejoin="round"/>
<line x1="18.5" y1="34.554" x2="18.5" y2="35.0135" stroke="#2E2E2E" stroke-linecap="round" stroke-linejoin="round"/>
</svg>
