<svg width="198" height="56" viewBox="0 0 198 56" fill="none" xmlns="http://www.w3.org/2000/svg">
<path d="M28 0C12.5323 0 0 12.5323 0 28C0 43.4677 12.5323 56 28 56C43.4677 56 56 43.4677 56 28C56 12.5323 43.4677 0 28 0ZM34.4468 39.5274L24.4887 32.2903C24.1387 32.0306 23.9355 31.6242 23.9355 31.1952V12.1935C23.9355 11.4484 24.5452 10.8387 25.2903 10.8387H30.7097C31.4548 10.8387 32.0645 11.4484 32.0645 12.1935V27.7403L39.2339 32.9565C39.8435 33.3968 39.9677 34.2435 39.5274 34.8532L36.3435 39.2339C35.9032 39.8323 35.0564 39.9677 34.4468 39.5274Z" fill="#F5F5F5"/>
<path d="M75.592 37.24C73.288 37.24 71.44 36.456 70.048 34.888C68.656 33.304 67.96 31.088 67.96 28.24C67.96 25.408 68.624 23.2 69.952 21.616C71.296 20.032 73.152 19.24 75.52 19.24C76.768 19.24 77.88 19.36 78.856 19.6C79.096 19.664 79.288 19.8 79.432 20.008C79.592 20.216 79.672 20.448 79.672 20.704C79.672 20.912 79.584 21.08 79.408 21.208C79.248 21.32 79.064 21.344 78.856 21.28C77.912 20.992 76.856 20.848 75.688 20.848C73.88 20.848 72.464 21.496 71.44 22.792C70.416 24.088 69.904 25.904 69.904 28.24C69.904 30.56 70.432 32.376 71.488 33.688C72.56 34.984 73.984 35.632 75.76 35.632C76.944 35.632 78.016 35.488 78.976 35.2C79.184 35.136 79.368 35.168 79.528 35.296C79.704 35.408 79.792 35.568 79.792 35.776C79.792 36.032 79.712 36.264 79.552 36.472C79.408 36.664 79.216 36.792 78.976 36.856C77.904 37.112 76.776 37.24 75.592 37.24ZM91.9964 30.76C91.9964 27.4 90.7164 25.72 88.1564 25.72C85.5964 25.72 84.3164 27.4 84.3164 30.76C84.3164 34.12 85.5964 35.8 88.1564 35.8C90.7164 35.8 91.9964 34.12 91.9964 30.76ZM92.3564 35.536C91.3484 36.672 89.9484 37.24 88.1564 37.24C86.3644 37.24 84.9644 36.672 83.9564 35.536C82.9484 34.4 82.4444 32.808 82.4444 30.76C82.4444 28.712 82.9484 27.12 83.9564 25.984C84.9644 24.848 86.3644 24.28 88.1564 24.28C89.9484 24.28 91.3484 24.848 92.3564 25.984C93.3644 27.12 93.8684 28.712 93.8684 30.76C93.8684 32.808 93.3644 34.4 92.3564 35.536ZM100.532 37.24C99.1403 37.24 98.1163 36.856 97.4603 36.088C96.8203 35.32 96.5003 34.048 96.5003 32.272V25.432C96.5003 25.176 96.5803 24.96 96.7403 24.784C96.9163 24.608 97.1323 24.52 97.3883 24.52C97.6443 24.52 97.8603 24.608 98.0363 24.784C98.2123 24.96 98.3003 25.176 98.3003 25.432V32.032C98.3003 33.472 98.5163 34.464 98.9483 35.008C99.3803 35.536 100.068 35.8 101.012 35.8C101.876 35.8 102.692 35.432 103.46 34.696C104.228 33.944 104.612 33.128 104.612 32.248V25.432C104.612 25.176 104.7 24.96 104.876 24.784C105.068 24.608 105.292 24.52 105.548 24.52C105.804 24.52 106.02 24.608 106.196 24.784C106.372 24.96 106.46 25.176 106.46 25.432V36.136C106.46 36.376 106.372 36.584 106.196 36.76C106.036 36.92 105.836 37 105.596 37C105.356 37 105.148 36.92 104.972 36.76C104.796 36.584 104.708 36.376 104.708 36.136V35.152C104.708 35.136 104.7 35.128 104.684 35.128C104.668 35.128 104.652 35.136 104.636 35.152C103.532 36.544 102.164 37.24 100.532 37.24ZM111.61 36.736C111.434 36.912 111.218 37 110.962 37C110.706 37 110.49 36.912 110.314 36.736C110.138 36.56 110.05 36.344 110.05 36.088V25.384C110.05 25.144 110.13 24.944 110.29 24.784C110.466 24.608 110.674 24.52 110.914 24.52C111.154 24.52 111.362 24.608 111.538 24.784C111.714 24.944 111.802 25.144 111.802 25.384V26.368C111.802 26.384 111.81 26.392 111.826 26.392C111.842 26.392 111.858 26.384 111.874 26.368C113.026 24.976 114.394 24.28 115.978 24.28C117.434 24.28 118.49 24.688 119.146 25.504C119.802 26.32 120.13 27.672 120.13 29.56V36.088C120.13 36.344 120.042 36.56 119.866 36.736C119.706 36.912 119.498 37 119.242 37C118.986 37 118.77 36.912 118.594 36.736C118.418 36.56 118.33 36.344 118.33 36.088V29.8C118.33 28.216 118.114 27.144 117.682 26.584C117.25 26.008 116.522 25.72 115.498 25.72C114.666 25.72 113.858 26.112 113.074 26.896C112.29 27.664 111.898 28.456 111.898 29.272V36.088C111.898 36.344 111.802 36.56 111.61 36.736ZM123.272 26.44C123.064 26.44 122.888 26.376 122.744 26.248C122.616 26.104 122.552 25.928 122.552 25.72C122.552 25.512 122.616 25.344 122.744 25.216C122.888 25.072 123.064 25 123.272 25H125.024C125.168 25 125.24 24.928 125.24 24.784V21.352C125.24 21.096 125.328 20.88 125.504 20.704C125.68 20.528 125.896 20.44 126.152 20.44C126.408 20.44 126.624 20.528 126.8 20.704C126.976 20.88 127.064 21.096 127.064 21.352V24.784C127.064 24.928 127.136 25 127.28 25H130.88C131.088 25 131.256 25.072 131.384 25.216C131.528 25.344 131.6 25.512 131.6 25.72C131.6 25.928 131.528 26.104 131.384 26.248C131.256 26.376 131.088 26.44 130.88 26.44H127.28C127.136 26.44 127.064 26.512 127.064 26.656V32.992C127.064 34.144 127.216 34.904 127.52 35.272C127.824 35.624 128.408 35.8 129.272 35.8C129.784 35.8 130.208 35.76 130.544 35.68C130.72 35.648 130.88 35.688 131.024 35.8C131.184 35.896 131.264 36.032 131.264 36.208C131.264 36.432 131.192 36.632 131.048 36.808C130.92 36.984 130.752 37.088 130.544 37.12C130.128 37.2 129.6 37.24 128.96 37.24C127.552 37.24 126.576 36.952 126.032 36.376C125.504 35.784 125.24 34.712 125.24 33.16V26.656C125.24 26.512 125.168 26.44 125.024 26.44H123.272ZM139.644 25.672C137.42 25.672 136.204 26.992 135.996 29.632C135.996 29.76 136.068 29.824 136.212 29.824H142.668C142.796 29.824 142.86 29.76 142.86 29.632C142.764 26.992 141.692 25.672 139.644 25.672ZM140.148 37.24C138.18 37.24 136.684 36.704 135.66 35.632C134.636 34.544 134.124 32.92 134.124 30.76C134.124 28.536 134.612 26.904 135.588 25.864C136.58 24.808 137.932 24.28 139.644 24.28C142.796 24.28 144.468 26.144 144.66 29.872C144.676 30.256 144.54 30.584 144.252 30.856C143.98 31.112 143.652 31.24 143.268 31.24H136.164C136.036 31.24 135.972 31.312 135.972 31.456C136.116 34.384 137.564 35.848 140.316 35.848C141.228 35.848 142.164 35.68 143.124 35.344C143.3 35.28 143.468 35.304 143.628 35.416C143.788 35.512 143.868 35.656 143.868 35.848C143.868 36.392 143.62 36.728 143.124 36.856C142.1 37.112 141.108 37.24 140.148 37.24ZM149.182 36.712C149.006 36.904 148.782 37 148.51 37C148.238 37 148.006 36.904 147.814 36.712C147.638 36.52 147.55 36.296 147.55 36.04V25.432C147.55 25.176 147.638 24.96 147.814 24.784C147.99 24.608 148.206 24.52 148.462 24.52C148.718 24.52 148.934 24.608 149.11 24.784C149.286 24.96 149.374 25.176 149.374 25.432V27.28C149.374 27.296 149.382 27.304 149.398 27.304C149.43 27.304 149.446 27.288 149.446 27.256C149.926 26.456 150.598 25.816 151.462 25.336C152.342 24.84 153.326 24.568 154.414 24.52C154.638 24.504 154.83 24.576 154.99 24.736C155.15 24.896 155.23 25.088 155.23 25.312C155.23 25.52 155.15 25.704 154.99 25.864C154.846 26.024 154.662 26.112 154.438 26.128C152.854 26.192 151.63 26.656 150.766 27.52C149.902 28.368 149.47 29.56 149.47 31.096V36.04C149.47 36.296 149.374 36.52 149.182 36.712ZM162.571 21.232L159.643 30.16C159.627 30.208 159.635 30.256 159.667 30.304C159.699 30.336 159.739 30.352 159.787 30.352H165.427C165.475 30.352 165.507 30.336 165.523 30.304C165.555 30.256 165.571 30.208 165.571 30.16L162.643 21.232C162.643 21.216 162.635 21.208 162.619 21.208C162.587 21.208 162.571 21.216 162.571 21.232ZM156.403 37C156.163 37 155.971 36.904 155.827 36.712C155.683 36.504 155.651 36.288 155.731 36.064L161.203 20.488C161.315 20.184 161.499 19.944 161.755 19.768C162.027 19.576 162.323 19.48 162.643 19.48C162.963 19.48 163.251 19.576 163.507 19.768C163.779 19.944 163.971 20.184 164.083 20.488L169.531 36.04C169.611 36.28 169.579 36.504 169.435 36.712C169.291 36.904 169.099 37 168.859 37C168.539 37 168.251 36.912 167.995 36.736C167.755 36.544 167.587 36.304 167.491 36.016L166.219 32.08C166.171 31.952 166.075 31.888 165.931 31.888H159.283C159.155 31.888 159.067 31.952 159.019 32.08L157.699 36.064C157.603 36.352 157.435 36.584 157.195 36.76C156.971 36.92 156.707 37 156.403 37ZM173.843 29.056V32.464C173.843 33.376 174.203 34.16 174.923 34.816C175.643 35.472 176.483 35.8 177.443 35.8C178.579 35.8 179.459 35.376 180.083 34.528C180.723 33.664 181.043 32.408 181.043 30.76C181.043 27.4 179.843 25.72 177.443 25.72C176.467 25.72 175.619 26.056 174.899 26.728C174.195 27.384 173.843 28.16 173.843 29.056ZM173.579 42.016C173.403 42.192 173.187 42.28 172.931 42.28C172.675 42.28 172.451 42.192 172.259 42.016C172.083 41.84 171.995 41.624 171.995 41.368V25.384C171.995 25.144 172.075 24.944 172.235 24.784C172.411 24.608 172.619 24.52 172.859 24.52C173.099 24.52 173.307 24.608 173.483 24.784C173.659 24.944 173.747 25.144 173.747 25.384L173.771 26.296C173.771 26.312 173.779 26.32 173.795 26.32L173.843 26.272C174.899 24.944 176.235 24.28 177.851 24.28C179.403 24.28 180.627 24.848 181.523 25.984C182.435 27.104 182.891 28.696 182.891 30.76C182.891 32.76 182.419 34.344 181.475 35.512C180.547 36.664 179.339 37.24 177.851 37.24C176.219 37.24 174.907 36.624 173.915 35.392C173.899 35.376 173.883 35.368 173.867 35.368C173.851 35.368 173.843 35.376 173.843 35.392V41.368C173.843 41.624 173.755 41.84 173.579 42.016ZM187.625 29.056V32.464C187.625 33.376 187.985 34.16 188.705 34.816C189.425 35.472 190.265 35.8 191.225 35.8C192.361 35.8 193.241 35.376 193.865 34.528C194.505 33.664 194.825 32.408 194.825 30.76C194.825 27.4 193.625 25.72 191.225 25.72C190.249 25.72 189.401 26.056 188.681 26.728C187.977 27.384 187.625 28.16 187.625 29.056ZM187.361 42.016C187.185 42.192 186.969 42.28 186.713 42.28C186.457 42.28 186.233 42.192 186.041 42.016C185.865 41.84 185.777 41.624 185.777 41.368V25.384C185.777 25.144 185.857 24.944 186.017 24.784C186.193 24.608 186.401 24.52 186.641 24.52C186.881 24.52 187.089 24.608 187.265 24.784C187.441 24.944 187.529 25.144 187.529 25.384L187.553 26.296C187.553 26.312 187.561 26.32 187.577 26.32L187.625 26.272C188.681 24.944 190.017 24.28 191.633 24.28C193.185 24.28 194.409 24.848 195.305 25.984C196.217 27.104 196.673 28.696 196.673 30.76C196.673 32.76 196.201 34.344 195.257 35.512C194.329 36.664 193.121 37.24 191.633 37.24C190.001 37.24 188.689 36.624 187.697 35.392C187.681 35.376 187.665 35.368 187.649 35.368C187.633 35.368 187.625 35.376 187.625 35.392V41.368C187.625 41.624 187.537 41.84 187.361 42.016Z" fill="#F5F5F5"/>
</svg>
